<svg id="svg" xmlns="http://www.w3.org/2000/svg" viewBox="0 0 100 100"><defs/><g id="main-group"><path id="element-0" fill-opacity="1" fill="rgb(255, 127, 0)" stroke-opacity="1" transform="" d="M 17.5,100 C 35,100 35,100 35,85 C 35,70 35,70 50,70 C 65,70 65,70 65,85 C 65,100 65,100 82.5,100 C 100,100 100,100 100,82.5 C 100,65 100,65 85,65 C 70,65 70,65 70,50 C 70,35 70,35 85,35 C 100,35 100,35 100,17.5 C 100,0 100,0 82.5,0 C 65,0 65,0 65,15 C 65,30 65,30 50,30 C 35,30 35,30 35,15 C 35,0 35,0 17.5,0 C 0,0 0,0 -3.214697847761802e-15,17.5 C -6.429395695523604e-15,35 -7.105427357601002e-15,35 14.999999999999993,35 C 29.999999999999993,35.000000000000014 29.999999999999993,35.000000000000014 29.99999999999999,50.000000000000014 C 29.999999999999986,65.00000000000001 29.999999999999986,65.00000000000001 14.999999999999986,65.00000000000001 C -1.4210854715202004e-14,65 -1.4210854715202004e-14,65 -1.7425552562963808e-14,82.5 C 0,100 0,100 17.5,100 z" class="cursor-selectable tag-0" visibility="visible"/></g></svg>