<svg id="svg" xmlns="http://www.w3.org/2000/svg" viewBox="-5 -10 110 20"><defs/><g id="main-group"><path id="element-0" fill-opacity="1" fill="rgb(255, 127, 0)" stroke="rgb(255, 0, 0)" stroke-opacity="1" stroke-width="2" transform="" d="M 3.5355339059327378,3.5355339059327373 C 7.0710678118654755,7.071067811865475 7.0710678118654755,7.071067811865475 8.838834764831844,5.303300858899106 C 10.606601717798213,3.5355339059327373 10.606601717798213,3.5355339059327373 12.374368670764582,5.303300858899106 C 14.142135623730951,7.071067811865475 14.142135623730951,7.071067811865475 15.90990257669732,5.303300858899106 C 17.67766952966369,3.5355339059327373 17.67766952966369,3.5355339059327373 19.445436482630058,5.303300858899106 C 21.213203435596427,7.071067811865475 21.213203435596427,7.071067811865475 22.980970388562795,5.303300858899106 C 24.748737341529164,3.5355339059327373 24.748737341529164,3.5355339059327373 26.516504294495533,5.303300858899106 C 28.284271247461902,7.071067811865475 28.284271247461902,7.071067811865475 30.05203820042827,5.303300858899106 C 31.81980515339464,3.5355339059327373 31.81980515339464,3.5355339059327373 33.58757210636101,5.303300858899106 C 35.35533905932738,7.071067811865475 35.35533905932738,7.071067811865475 37.123106012293746,5.303300858899106 C 38.890872965260115,3.5355339059327373 38.890872965260115,3.5355339059327373 40.658639918226484,5.303300858899106 C 42.42640687119285,7.071067811865475 42.42640687119285,7.071067811865475 44.19417382415922,5.303300858899106 C 45.96194077712559,3.5355339059327373 45.96194077712559,3.5355339059327373 47.72970773009196,5.303300858899106 C 49.49747468305833,7.071067811865475 49.49747468305833,7.071067811865475 51.2652416360247,5.303300858899106 C 53.033008588991066,3.5355339059327373 53.033008588991066,3.5355339059327373 54.800775541957435,5.303300858899106 C 56.568542494923804,7.071067811865475 56.568542494923804,7.071067811865475 58.33630944789017,5.303300858899106 C 60.10407640085654,3.5355339059327373 60.10407640085654,3.5355339059327373 61.87184335382291,5.303300858899106 C 63.63961030678928,7.071067811865475 63.63961030678928,7.071067811865475 65.40737725975565,5.303300858899106 C 67.17514421272202,3.5355339059327373 67.17514421272202,3.5355339059327373 68.94291116568839,5.303300858899106 C 70.71067811865476,7.071067811865475 70.71067811865476,7.071067811865475 72.47844507162112,5.303300858899106 C 74.24621202458749,3.5355339059327373 74.24621202458749,3.5355339059327373 76.01397897755386,5.303300858899106 C 77.78174593052023,7.071067811865475 77.78174593052023,7.071067811865475 79.5495128834866,5.303300858899106 C 81.31727983645297,3.5355339059327373 81.31727983645297,3.5355339059327373 83.08504678941934,5.303300858899106 C 84.8528137423857,7.071067811865475 84.8528137423857,7.071067811865475 86.62058069535207,5.303300858899106 C 88.38834764831844,3.5355339059327373 88.38834764831844,3.5355339059327373 90.15611460128481,5.303300858899106 C 91.92388155425118,7.071067811865475 91.92388155425118,7.071067811865475 95.45941546018392,3.5355339059327373 C 98.99494936611666,0 98.99494936611666,0 95.45941546018392,-3.5355339059327378 C 91.92388155425118,-7.0710678118654755 91.92388155425118,-7.0710678118654755 90.15611460128481,-5.303300858899107 C 88.38834764831844,-3.535533905932738 88.38834764831844,-3.535533905932738 86.62058069535207,-5.303300858899107 C 84.8528137423857,-7.0710678118654755 84.8528137423857,-7.0710678118654755 83.08504678941934,-5.303300858899107 C 81.31727983645297,-3.535533905932738 81.31727983645297,-3.535533905932738 79.5495128834866,-5.303300858899107 C 77.78174593052023,-7.0710678118654755 77.78174593052023,-7.0710678118654755 76.01397897755386,-5.303300858899107 C 74.24621202458749,-3.535533905932738 74.24621202458749,-3.535533905932738 72.47844507162112,-5.303300858899107 C 70.71067811865476,-7.0710678118654755 70.71067811865476,-7.0710678118654755 68.94291116568839,-5.303300858899107 C 67.17514421272202,-3.535533905932738 67.17514421272202,-3.535533905932738 65.40737725975565,-5.303300858899107 C 63.63961030678928,-7.0710678118654755 63.63961030678928,-7.0710678118654755 61.87184335382291,-5.303300858899107 C 60.10407640085654,-3.535533905932738 60.10407640085654,-3.535533905932738 58.33630944789017,-5.303300858899107 C 56.568542494923804,-7.0710678118654755 56.568542494923804,-7.0710678118654755 54.800775541957435,-5.303300858899107 C 53.033008588991066,-3.535533905932738 53.033008588991066,-3.535533905932738 51.2652416360247,-5.303300858899107 C 49.49747468305833,-7.0710678118654755 49.49747468305833,-7.0710678118654755 47.72970773009196,-5.303300858899107 C 45.96194077712559,-3.535533905932738 45.96194077712559,-3.535533905932738 44.19417382415922,-5.303300858899107 C 42.42640687119285,-7.0710678118654755 42.42640687119285,-7.0710678118654755 40.658639918226484,-5.303300858899107 C 38.890872965260115,-3.535533905932738 38.890872965260115,-3.535533905932738 37.123106012293746,-5.303300858899107 C 35.35533905932738,-7.0710678118654755 35.35533905932738,-7.0710678118654755 33.58757210636101,-5.303300858899107 C 31.81980515339464,-3.535533905932738 31.81980515339464,-3.535533905932738 30.05203820042827,-5.303300858899107 C 28.284271247461902,-7.0710678118654755 28.284271247461902,-7.0710678118654755 26.516504294495533,-5.303300858899107 C 24.748737341529164,-3.535533905932738 24.748737341529164,-3.535533905932738 22.980970388562795,-5.303300858899107 C 21.213203435596427,-7.0710678118654755 21.213203435596427,-7.0710678118654755 19.445436482630058,-5.303300858899107 C 17.67766952966369,-3.535533905932738 17.67766952966369,-3.535533905932738 15.90990257669732,-5.303300858899107 C 14.142135623730951,-7.0710678118654755 14.142135623730951,-7.0710678118654755 12.374368670764582,-5.303300858899107 C 10.606601717798213,-3.535533905932738 10.606601717798213,-3.535533905932738 8.838834764831844,-5.303300858899107 C 7.0710678118654755,-7.0710678118654755 7.0710678118654755,-7.0710678118654755 3.535533905932737,-3.535533905932738 C 0,0 0,0 3.5355339059327378,3.5355339059327373 z" class="cursor-selectable tag-0" visibility="visible"/></g></svg>